<svg width="398" height="150" viewBox="0 0 410 155">
    <g fill="#1b1b3a">
        <rect width="410" height="155" rx="10" ry="10"/>
    </g>
    <g transform="matrix(1.2798569659851686,0,0,1.2798569659851686,2.0594171096737988,13.600715170074157)"
       fill="#39ff14">
        <g>
            <path fill-rule="evenodd" clip-rule="evenodd"
                  d="M80.208,8.35c-0.833,0.434-2.184,0.567-4.05,0.4c-1.834-0.2-3.384-0.633-4.65-1.3   C74.041,6.717,76.941,7.017,80.208,8.35z M77.908,15.45c1.5-0.434,3.467-0.383,5.899,0.15c0.733,0.167,1.267,0.7,1.601,1.6   c0.366,0.967,0.55,2.133,0.55,3.5c0.1,5.6-0.101,10.2-0.601,13.8c-0.366,2.5-0.55,5.583-0.55,9.25   c0.067,4.167,0.101,7.284,0.101,9.35c-0.134,7.867-0.15,16.767-0.051,26.7c0,3.2-1.316,5.566-3.949,7.1   c-2.467,1.4-5.067,2.366-7.801,2.9c-4.933,0.966-11.8,1.333-20.6,1.1l-13.3-0.75c-5.367-0.3-9.817-0.367-13.351-0.2   c-1.033,0.033-1.732-0.017-2.1-0.15c-0.733-0.233-1.15-0.833-1.25-1.8c-1.5-1-2.333-2.417-2.5-4.25c0-0.2,0.083-1.85,0.25-4.95   c0.033-0.833-0.017-1.917-0.15-3.25c-0.133-1.7-0.199-2.8-0.199-3.3c-0.334-7.767-0.434-13.633-0.301-17.6   c0.101-4.067,0.15-6.767,0.15-8.1c-0.1-3.034-0.383-5.717-0.85-8.05c-0.167-0.966-0.2-2.466-0.101-4.5   c-0.267-5.8-0.7-10.35-1.3-13.65c-0.133-0.633-0.083-1.017,0.15-1.15c0.399-0.267,0.633-0.617,0.699-1.05   c0-0.134-0.017-0.55-0.05-1.25c-0.3-2.5,0.851-4.083,3.45-4.75c4.434-1.134,10.083-1.434,16.95-0.9c0.5,0.067,1.283,0.15,2.35,0.25   c2.267-0.1,5.217-0.1,8.851,0c4.666,0.233,7.6,0.35,8.8,0.35c1.533,0,3.667,0.184,6.399,0.55c3.033,0.4,5.167,0.633,6.4,0.7   c1.467,0.067,2.55,0.067,3.25,0c0.9-0.1,1.35,0.233,1.35,1c0,0.733-0.482,1.1-1.449,1.1l-1.2-0.25c-1.3-0.2-2.15,0.417-2.55,1.85   c-0.268,0.833-0.434,2.117-0.5,3.85l-0.15,6c0,0.833-0.35,1.383-1.05,1.65c-0.667,0.2-1.2-0.133-1.601-1   c-0.5-0.967-1.467-2.2-2.899-3.7c-0.7,0.7-1.4,1.967-2.101,3.8c-0.333,0.966-0.949,1.35-1.85,1.15   c-0.633-0.133-0.95-0.684-0.95-1.65l-0.3-8.7c-0.033-0.667-0.066-1.667-0.1-3c-0.233-1.167-0.934-1.717-2.101-1.65   c-1.433,0.066-3.816-0.034-7.149-0.3c-3.101-0.2-5.5-0.216-7.2-0.05c-0.767,0.1-1.717,0.083-2.851-0.05   c-1.267-0.134-2.217-0.217-2.85-0.25c-1.7,0-3-0.05-3.9-0.15c-2.5-0.233-4.866,0.233-7.1,1.4c-1.767,0.966-3.633,2.483-5.6,4.55   c-0.533,0.6-0.733,1.316-0.601,2.15c0.233,1.033,0.384,1.85,0.45,2.45c0.566-0.633,2.117-2.117,4.65-4.45   c1.899-1.7,3.316-3.2,4.25-4.5l0.6-0.65c0.233-0.2,0.5-0.167,0.8,0.1c0.5,0.433,0.417,0.933-0.25,1.5l-8.649,7.95   c-0.9,0.934-1.4,1.6-1.5,2c-0.101,0.367-0.018,1.2,0.25,2.5l8.699-7.95c0.533-0.434,0.967-0.483,1.301-0.15   c0.467,0.466,0.366,0.883-0.301,1.25c-0.8,0.466-1.699,1.2-2.699,2.2c-1.367,1.367-2.167,2.167-2.4,2.4   c-0.333,0.267-1.233,1.184-2.7,2.75c-1.5,1.6-1.967,3.684-1.399,6.25l7.699-7.4c0.533-0.533,1.051-0.967,1.551-1.3   c0.166-0.167,0.366-0.15,0.6,0.05c0.167,0.1,0.25,0.2,0.25,0.3c0.033,0.167-0.017,0.316-0.15,0.45l-1.85,1.9   c-3.434,3.034-5.583,4.967-6.45,5.8c-1.167,1.133-1.8,2.066-1.899,2.8c-0.067,0.733,0.267,1.967,1,3.7   c1.467-1.133,3.583-3.25,6.35-6.35l1.05-1.4c0.3-0.3,0.567-0.367,0.8-0.2c0.434,0.167,0.5,0.483,0.2,0.95   c-0.933,1.167-1.649,2-2.149,2.5c-1.5,1.6-2.667,2.733-3.5,3.4c-2.7,2.133-3.634,4.833-2.801,8.1l8.65-9.05   c0.2,0.7,0.167,1.333-0.1,1.9c-0.101,0.2-0.4,0.566-0.9,1.1l-4.25,4.2c-1.3,1.233-2.217,2.4-2.75,3.5   c-0.667,1.367-0.9,2.833-0.7,4.4c0,0.2-0.05,0.9-0.149,2.1c-0.067,0.867,0.017,1.617,0.25,2.25c1.133-1.067,2.5-2.75,4.1-5.05   c1.667-2.434,2.95-4.134,3.85-5.1l0.7,0.5c-1.433,2.2-2.517,3.8-3.25,4.8c-1.267,1.733-2.483,3.2-3.649,4.4   c-1.9,1.934-2.417,4.55-1.551,7.85l6.75-9c0.167-0.3,0.417-0.383,0.75-0.25c0.5,0.2,0.567,0.533,0.2,1l-1.8,2.35   c-0.5,0.633-2.2,2.867-5.1,6.7c-0.601,0.8-0.95,1.683-1.051,2.65c-0.033,0.7,0.051,1.767,0.25,3.2c1.334-1.333,3.334-3.8,6-7.4   c0.033-0.1,0.217-0.45,0.551-1.05c0.267-0.434,0.6-0.55,1-0.35c0.433,0.267,0.5,0.633,0.199,1.1l-2.6,3.6   c-1.167,1.6-2.3,3.017-3.4,4.25c-1.333,1.667-1.767,3.433-1.3,5.3c0.367,0.1,0.7,0.017,1-0.25c0.134-0.167,0.317-0.467,0.55-0.9   l4.45-6c0.134-0.167,0.317-0.467,0.55-0.9c0.301-0.233,0.634-0.2,1,0.1c0.301,0.233,0.351,0.483,0.15,0.75   c-0.333,0.267-0.55,0.467-0.65,0.6l-5.949,8.35c-0.667,1.033-1.033,1.917-1.101,2.65c-0.033,0.767,0.167,1.95,0.601,3.55   c0.566-1.367,1.633-2.9,3.199-4.6c1.768-1.8,2.867-3.167,3.301-4.1c0.433-0.8,0.933-1,1.5-0.6c0.333,0.233,0.449,0.483,0.35,0.75   c-0.066,0.1-0.267,0.333-0.6,0.7l-5.4,6c-0.467,0.433-0.783,0.75-0.95,0.95c-0.3,0.4-0.217,0.8,0.25,1.2c0.4,0.333,0.8,0.333,1.2,0   c0.066-0.1,0.367-0.467,0.9-1.1c1.267-1.367,2.316-2.8,3.149-4.3c0.3-0.5,0.65-0.6,1.05-0.3c0.334,0.2,0.384,0.55,0.15,1.05   c-0.833,1.367-1.8,2.633-2.9,3.8c-0.467,0.467-0.8,0.833-1,1.1c-0.399,0.4-0.666,0.85-0.8,1.35c0.867,0.3,1.55,0.367,2.05,0.2   c0.634-0.167,1.101-0.65,1.4-1.45c0.233-0.633,0.617-0.833,1.15-0.6c0.3,0.133,0.449,0.316,0.449,0.55   c-0.033,0.1-0.133,0.333-0.3,0.7c-0.2,0.367-0.183,0.633,0.05,0.8c0.134,0.1,0.417,0.167,0.851,0.2l6,0.35   c9.467,0.433,15.149,0.667,17.05,0.7c6.133,0.167,11.3-0.066,15.5-0.7c1.8-0.267,3.316-1.133,4.55-2.6   c1.167-1.467,1.717-3.033,1.65-4.7c-0.101-3-0.033-6.583,0.2-10.75c0.133-2.433,0.35-6.033,0.649-10.8   c0.167-3.333,0.184-7.333,0.05-12c-0.133-2.667-0.3-6.65-0.5-11.95c-0.033-1.5-0.083-3.733-0.149-6.7   c-0.033-2.633,0.033-4.883,0.2-6.75c0.199-1.8,0-3.267-0.601-4.4C76.208,16.617,76.574,15.883,77.908,15.45z M79.408,18.6   c-0.033,1.567-0.051,2.75-0.051,3.55c-0.199,6.733-0.1,13.033,0.301,18.9c0.3,4.1,0.433,8.167,0.399,12.2   c-0.433,11.067-0.683,19.383-0.75,24.95c0,3.433-0.566,6.35-1.7,8.75c1.7-0.8,2.95-1.684,3.75-2.65c0.834-1.067,1.268-2.4,1.301-4   c0-0.4,0.05-1.15,0.149-2.25c0.067-0.967,0.083-1.717,0.05-2.25c-0.033-2.1,0.117-8.367,0.45-18.8c0.167-5.2,0.184-9.066,0.05-11.6   c-0.133-1.967-0.116-4.167,0.051-6.6c0.033-1.067,0.199-3.25,0.5-6.55c0.199-3.433,0.3-5.417,0.3-5.95   c0.1-2.267-0.017-4.267-0.351-6c-0.166-1.1-0.433-1.833-0.8-2.2c-0.333-0.333-1.05-0.633-2.149-0.9   c-0.634-0.167-1.051-0.117-1.25,0.15C79.458,17.55,79.375,17.967,79.408,18.6z M65.458,7c-0.7,0.567-1.65,0.767-2.851,0.6   c-1.967-0.3-4.517-0.533-7.649-0.7c-4.134-0.2-6.65-0.35-7.55-0.45l-1.551-0.1c-0.333-0.1-0.5-0.316-0.5-0.65   c0-0.367,0.2-0.55,0.601-0.55c0.3-0.1,0.7-0.15,1.2-0.15c3.399,0.067,9.267,0.483,17.6,1.25C65.058,6.25,65.291,6.5,65.458,7z    M61.357,15.05c-0.166,3.9-0.133,6.917,0.101,9.05c0.833-0.5,1.217-1.15,1.149-1.95c0-1.034,0.367-1.65,1.101-1.85   c0.833-0.233,1.566,0.133,2.2,1.1c0.199,0.366,0.533,0.917,1,1.65c0.399,0.566,0.899,0.966,1.5,1.2   c0.199-0.633,0.316-1.417,0.35-2.35c0-0.5,0-1.233,0-2.2c0.133-2.667,0-4.25-0.4-4.75c-0.467-0.5-2.05-0.85-4.75-1.05l-0.899-0.05   C61.808,13.75,61.357,14.15,61.357,15.05z M60.658,35.2c-0.5-0.067-0.834-0.05-1,0.05l-8-1.45c-0.768-0.167-1.067-0.5-0.9-1   c0.1-0.3,0.267-0.45,0.5-0.45c0.167,0,0.417,0.05,0.75,0.15c0.467,0.034,1.733,0.284,3.8,0.75c1.567,0.333,2.851,0.434,3.851,0.3   c1.066-0.067,1.6,0.25,1.6,0.95C61.225,34.967,61.024,35.2,60.658,35.2z M59.308,37.2c1.4-0.4,2.55-0.184,3.45,0.65   c0.934,0.9,1.267,2.05,1,3.45c-0.367,1.9-0.717,3.283-1.05,4.15c-0.567,1.467-1.384,2.65-2.45,3.55c-1.566,1.4-3.5,1.983-5.8,1.75   c-0.533-0.066-0.934-0.1-1.2-0.1c-0.467,0.033-0.816,0.216-1.05,0.55c-1.267,1.533-2.167,2.717-2.7,3.55   c-0.133,0.167,0.083,0.583,0.65,1.25c2,2.567,3.283,4.1,3.85,4.6l1.45,1.5c0.5,0.533,0.45,1.184-0.15,1.95   c-0.533,0.667-1.116,0.583-1.75-0.25l-3.85-4.95c-0.967-1.3-1.601-2.083-1.9-2.35c-0.7,0.6-1.45,1.4-2.25,2.4   c-1.167,1.533-1.816,2.366-1.95,2.5c-0.199,0.267-0.883,1.116-2.05,2.55c-0.533,0.667-0.883,1.05-1.05,1.15   c-0.467,0.333-0.9,0.333-1.3,0c-0.5-0.467-0.583-0.9-0.25-1.3c0.2-0.267,0.566-0.6,1.1-1c1.134-1.4,2.9-3.434,5.3-6.1   c1.2-1.3,1.334-2.55,0.4-3.75c-0.367-0.467-1.083-1.55-2.15-3.25c-0.6-1.1-1.533-1.733-2.8-1.9c-1.066-0.1-2.35-0.983-3.85-2.65   c-1.467-1.634-2.25-3-2.351-4.1c0-0.367,0.134-0.6,0.4-0.7c0.2-0.066,0.383-0.066,0.55,0c0.267,0.1,0.5,0.3,0.7,0.6   c0.133,0.133,0.316,0.367,0.55,0.7c0.767,1.066,1.25,1.7,1.45,1.9c0.566,0.733,1.233,1.283,2,1.65c0-0.767-0.25-1.6-0.75-2.5   c-0.667-1.133-1.05-1.867-1.15-2.2c-0.033-0.2-0.116-0.5-0.25-0.9c-0.033-0.333,0.101-0.583,0.4-0.75   c0.4-0.233,0.85,0.05,1.35,0.85c0.167,0.233,0.634,1.1,1.4,2.6c0.566,1.1,1.133,1.917,1.7,2.45c0.7-0.966,1.05-1.733,1.05-2.3   c0.033-0.633-0.283-1.35-0.95-2.15l-2.3-2.3c-0.5-0.466-0.55-0.9-0.15-1.3c0.4-0.467,0.867-0.533,1.4-0.2   c1.733,1,2.917,2.4,3.55,4.2c0.601,1.833,0.483,3.683-0.35,5.55c-0.434,0.934-0.467,1.667-0.101,2.2l2.95,4.8l2.65-3.05   c0.333-0.4,0.483-0.867,0.45-1.4c-0.334-1.867-0.117-3.7,0.649-5.5c0.634-1.267,1.7-2.8,3.2-4.6c0.633-0.8,1.217-1.133,1.75-1   c0.434,0.1,0.867,0.066,1.3-0.1C58.357,37.534,58.774,37.4,59.308,37.2z M54.658,47.95c0.699,0.5,1.416,0.667,2.149,0.5   c1.5-0.367,2.8-1.417,3.9-3.15c1.1-1.733,1.45-3.35,1.05-4.85c-0.233-1.133-0.9-1.684-2-1.65c-1.5,0.033-2.983,0.9-4.45,2.6   c-1.433,1.6-2.05,3.183-1.85,4.75C53.591,46.883,53.991,47.483,54.658,47.95z M80.857,32.35c-0.533-4.633-0.267-8.517,0.801-11.65   v11.65H80.857z M82.408,66.85c0.1,1.533,0.017,2.85-0.25,3.95c-0.233,1.033-0.384,2.267-0.45,3.7c0,0.167,0,1.417,0,3.75   c0,0.967-0.017,1.667-0.05,2.1c-0.134,0.833-0.417,1.483-0.851,1.95l-0.75-0.05l1.5-19.4c0.367,0,0.55,0.017,0.55,0.05   C82.241,64.667,82.341,65.983,82.408,66.85z M54.758,71.3l-5.45-0.3c-1.6,0.1-4.533-0.033-8.8-0.4c-0.867,0-1.267-0.283-1.2-0.85   c0.033-0.433,0.434-0.583,1.2-0.45c1.867,0.3,4.133,0.466,6.8,0.5c1.5,0.033,3.783,0.066,6.851,0.1c0.433,0,0.717,0.033,0.85,0.1   c0.3,0.067,0.4,0.317,0.3,0.75C55.274,71.083,55.091,71.267,54.758,71.3z M61.958,70.85c0.7,0.1,0.967,0.4,0.8,0.9   s-0.467,0.667-0.9,0.5c-0.732-0.233-1.166-0.383-1.3-0.45c-0.433-0.2-0.783-0.534-1.05-1c0.367-0.167,0.816-0.217,1.35-0.15   C61.091,70.717,61.458,70.784,61.958,70.85z M63.107,93.7c0.367,0.066,0.634,0.267,0.801,0.6c-0.134,0.433-0.384,0.667-0.75,0.7   c-0.467,0-0.801,0-1,0l-14.4-0.05c-0.5,0-0.783-0.017-0.85-0.05c-0.301-0.167-0.467-0.384-0.5-0.65c-0.101-0.367,0.066-0.6,0.5-0.7   c0.333-0.067,0.616-0.083,0.85-0.05c1.767,0.267,4.15,0.333,7.15,0.2c3.5-0.133,5.899-0.15,7.199-0.05   C62.308,93.684,62.641,93.7,63.107,93.7z M75.458,93.2c1.767-0.133,2.933-0.3,3.5-0.5c0.566-0.2,1.533-0.867,2.899-2   c1.134-0.967,2.217-1.517,3.25-1.65c-2.433,4.3-6.75,6-12.949,5.1C72.891,93.65,73.991,93.333,75.458,93.2z M20.008,17.4   c1.5-0.9,2.717-2.083,3.65-3.55c-1.101,0.3-1.934,0.667-2.5,1.1C20.591,15.517,20.208,16.333,20.008,17.4z M44.008,33.5   c-1-0.133-2.017-0.617-3.05-1.45c0.833,0.033,2.017,0.083,3.55,0.15c1.333,0.066,2.517,0.267,3.55,0.6   C46.391,33.4,45.041,33.633,44.008,33.5z M14.658,57.6c-0.533-3.167-0.733-5.65-0.601-7.45c0-0.733,0.25-1.117,0.75-1.15   c0.5,0,0.75,0.367,0.75,1.1l0.05,7.8C14.975,58.034,14.658,57.934,14.658,57.6z M14.308,63.35c0.033-0.3,0.233-0.467,0.601-0.5   c0.433-0.033,0.732,0.3,0.899,1l0.4,2.3c0.233,1.833,0.35,4.316,0.35,7.45c0.033,3.667,0.083,6.15,0.15,7.45   c0.1,0.867-0.167,1.333-0.8,1.4c-0.533,0.033-0.851-0.383-0.95-1.25c-0.101-0.8-0.101-1.75,0-2.85c0.066-0.6,0.183-1.533,0.35-2.8   l-1-11.35C14.241,63.767,14.241,63.483,14.308,63.35z M15.408,87.9c-0.2-0.467-0.033-0.75,0.5-0.85c0.6-0.067,0.982,0.267,1.149,1   c-0.1,0.6-0.3,0.917-0.6,0.95c-0.333,0.034-0.583-0.083-0.75-0.35C15.675,88.583,15.574,88.333,15.408,87.9z"/>
        </g>
    </g>
    <g transform="matrix(3.690537306503559,0,0,3.690537306503559,128.30946445328175,21.144908868662377)" fill="#ffffff">
        <path d="M10.86 15.08 c0 2.94 -2.12 5.12 -4.96 5.12 c-0.96 0 -2.18 -0.4 -2.84 -0.94 l0 5.84 l-2.06 0 l0 -14.98 l2.06 0 l0 0.78 c0.78 -0.6 1.88 -0.96 2.84 -0.96 c2.84 0 4.96 2.2 4.96 5.14 z M8.78 15.08 c0 -2.02 -1.38 -3.44 -3.08 -3.44 c-1.12 0 -2.1 0.5 -2.64 1.58 c-0.26 0.54 -0.42 1.18 -0.42 1.86 s0.16 1.32 0.42 1.86 c0.54 1.06 1.52 1.58 2.64 1.58 c1.7 0 3.08 -1.44 3.08 -3.44 z M17.8 11.64 c-1.7 0 -3.08 1.42 -3.08 3.44 c0 2 1.38 3.44 3.08 3.44 s3.08 -1.44 3.08 -3.44 c0 -2.02 -1.38 -3.44 -3.08 -3.44 z M17.8 9.94 c2.84 0 5.14 2.2 5.14 5.14 s-2.3 5.12 -5.14 5.12 s-5.14 -2.18 -5.14 -5.12 s2.3 -5.14 5.14 -5.14 z M24.999999999999996 15.82 l0 -5.7 l2.06 0 l0 5.5 c0 2 0.62 2.88 2.32 2.88 c1.92 0 2.7 -1.34 2.7 -3.08 l0 -5.3 l2.06 0 l0 9.88 l-2.06 0 l0 -1.6 c-0.28 0.88 -1.52 1.68 -2.7 1.76 c-2.68 0.2 -4.38 -1.1 -4.38 -4.34 z M42.879999999999995 10.24 l-0.44 1.62 c-0.14 -0.08 -0.58 -0.22 -0.94 -0.22 c-1.7 0 -2.5 1.62 -2.5 3.62 l0 4.74 l-2.06 0 l0 -9.88 l2.06 0 l0 1.4 c0.24 -0.92 1.3 -1.58 2.48 -1.58 c0.54 0 1.12 0.14 1.4 0.3 z M48.62 20.2 c-2.84 0 -4.94 -2.18 -4.94 -5.12 s2.1 -5.14 4.94 -5.14 c0.98 0 2.06 0.36 2.84 0.96 l0 -0.78 l2.08 0 l0 14.98 l-2.08 0 l0 -5.84 c-0.66 0.54 -1.86 0.94 -2.84 0.94 z M48.81999999999999 11.64 c-1.7 0 -3.08 1.42 -3.08 3.44 c0 2 1.38 3.44 3.08 3.44 c1.12 0 2.1 -0.52 2.64 -1.58 c0.28 -0.54 0.44 -1.18 0.44 -1.86 s-0.16 -1.32 -0.44 -1.86 c-0.54 -1.08 -1.52 -1.58 -2.64 -1.58 z M61.07999999999999 11.64 c-1.7 0 -3.08 1.42 -3.08 3.44 c0 2 1.38 3.44 3.08 3.44 s3.08 -1.44 3.08 -3.44 c0 -2.02 -1.38 -3.44 -3.08 -3.44 z M61.07999999999999 9.94 c2.84 0 5.14 2.2 5.14 5.14 s-2.3 5.12 -5.14 5.12 s-5.14 -2.18 -5.14 -5.12 s2.3 -5.14 5.14 -5.14 z M70.78 10.12 l0 9.88 l-2.06 0 l0 -9.88 l2.06 0 z M70.88 6.5 c0 0.64 -0.5 1.14 -1.14 1.14 c-0.62 0 -1.12 -0.5 -1.12 -1.14 c0 -0.62 0.5 -1.12 1.12 -1.12 c0.64 0 1.14 0.5 1.14 1.12 z"/>
    </g>
</svg>
